<?xml version="1.0" encoding="iso-8859-1"?>
<!-- Uploaded to: SVG Repo, www.svgrepo.com, Generator: SVG Repo Mixer Tools -->
<svg version="1.1" id="Layer_1" xmlns="http://www.w3.org/2000/svg" xmlns:xlink="http://www.w3.org/1999/xlink" 
	 viewBox="0 0 305.424 305.424" xml:space="preserve">
<g>
	<g id="techincian-customer-service-man-avatar-engineer_1_">
		<path style="fill:#3ADDBE;" d="M185.604,281.93c0,7.772,6.325,14.096,14.097,14.096h9.398c7.772,0,14.097-6.325,14.097-14.096
			v-18.795h-37.591L185.604,281.93L185.604,281.93z"/>
		<path style="fill:#F8CF26;" d="M265.484,84.579c0-3.205-0.324-6.325-0.799-9.398h-17.997c-12.955,0-23.494-10.539-23.494-23.494
			V26.483c-4.492-1.457-9.219-2.378-14.097-2.754v51.452H199.7V23.734c-4.877,0.376-9.604,1.292-14.097,2.754v25.2
			c0,12.955-10.539,23.494-23.494,23.494h-17.997c-0.475,3.073-0.799,6.193-0.799,9.398v4.699h122.17v-4.7H265.484z"/>
		<path style="fill:#F78B28;" d="M246.689,140.965v-27.737c-12.48,2.862-27.62,4.243-42.29,4.243s-29.809-1.381-42.29-4.243v27.737
			c0,23.32,18.974,42.29,42.29,42.29S246.689,164.285,246.689,140.965z M204.399,164.459c12.955,0,23.494-10.539,23.494-23.494
			h9.398c0,18.133-14.754,32.892-32.892,32.892V164.459z"/>
		<path style="fill:#F8CF26;" d="M49.338,136.266v-22.113c-5.159,5.747-9.398,13.49-9.398,22.113
			c0,13.453,8.068,25.416,20.557,30.477c1.776,0.724,2.937,2.443,2.937,4.356v68.542H82.23v-68.542c0-1.927,1.175-3.66,2.97-4.37
			c12.471-4.934,20.525-16.892,20.525-30.463c0-8.622-4.238-16.366-9.398-22.113v22.113c0,2.598-2.105,4.699-4.699,4.699H54.037
			C51.443,140.965,49.338,138.865,49.338,136.266z"/>
		<path style="fill:#F8CF26;" d="M260.259,98.676H148.54c8.463,4.403,27.197,9.398,55.86,9.398
			C233.062,108.073,251.796,103.078,260.259,98.676z"/>
		<polygon style="fill:#F78B28;" points="58.735,249.038 54.037,249.038 54.037,258.436 63.434,258.436 63.434,267.834 
			54.037,267.834 54.037,277.231 63.434,277.231 63.434,286.629 54.037,286.629 54.037,296.027 91.627,296.027 91.627,267.834 
			91.627,249.038 86.928,249.038 		"/>
		<rect x="101.025" y="272.532" style="fill:#F78B28;" width="23.494" height="23.494"/>
		<path style="fill:#3ADDBE;" d="M157.411,198.737c-13.57,4.055-23.494,16.639-23.494,31.506v37.591v16.85l23.494-23.494V198.737z"
			/>
		<path style="fill:#F8CF26;" d="M176.206,51.687V30.444c-14.073,7.358-24.932,20.022-29.903,35.34h15.807
			C169.882,65.784,176.206,59.459,176.206,51.687z"/>
		<rect x="185.604" y="197.351" style="fill:#3ADDBE;" width="37.591" height="37.591"/>
		<path style="fill:#3ADDBE;" d="M274.882,230.243c0-14.867-9.924-27.451-23.494-31.506v62.452l23.494,23.494V230.243z"/>
		<path style="fill:#F8CF26;" d="M246.689,65.784h15.807c-4.971-15.318-15.83-27.982-29.903-35.34v21.243
			C232.592,59.459,238.917,65.784,246.689,65.784z"/>
		<polygon style="fill:#FFFFFF;" points="129.218,305.424 129.218,296.027 162.11,263.135 162.11,192.652 180.905,192.652 
			180.905,286.629 190.303,300.725 218.496,300.725 227.893,291.328 227.893,192.652 246.689,192.652 246.689,263.135 
			279.581,296.027 279.581,305.424 		"/>
		<rect x="171.507" y="239.641" style="fill:#FFFFFF;" width="65.784" height="18.795"/>
		<path d="M237.291,183.255h-16.183c17.832-8.157,30.279-26.13,30.279-46.988v-30.378c11.305-3.839,18.795-9.318,18.795-16.61V79.88
			c0-37.281-29.109-67.809-65.784-70.243V0H195v9.637c-36.674,2.434-65.784,32.962-65.784,70.243v9.398
			c0,7.293,7.49,12.771,18.795,16.61v30.378c0,20.858,12.447,38.831,30.279,46.988h-16.18c-23.316,0-42.29,18.969-42.29,42.29
			v32.892H96.326v-18.795c0-2.598-2.105-4.699-4.699-4.699h-4.699v-65.483c14.374-7.001,23.494-21.544,23.494-37.891
			c0-16.202-10.756-29.419-20.821-36.383c-1.438-1.001-3.303-1.104-4.854-0.296c-1.546,0.808-2.519,2.41-2.519,4.158v27.822H54.037
			V99.047c0-1.748-0.973-3.35-2.519-4.163c-1.546-0.808-3.416-0.7-4.854,0.296c-10.065,6.968-20.821,20.186-20.821,36.388
			c0,16.22,9.12,30.759,23.494,37.873v65.502h-4.699c-2.594,0-4.699,2.1-4.699,4.699v56.386c0,2.598,2.105,4.699,4.699,4.699h46.988
			h28.193h4.699h4.699v-4.699v-2.754l31.515-31.515c0.883-0.879,1.377-2.072,1.377-3.322v-65.784h9.398v42.29
			c0,2.598,2.105,4.699,4.699,4.699h46.988c2.594,0,4.699-2.1,4.699-4.699v-42.29h9.398v65.784c0,1.25,0.493,2.443,1.377,3.322
			l31.515,31.515v7.452h9.398v-75.181C279.581,202.224,260.607,183.255,237.291,183.255z M199.7,103.374
			c-28.663,0-47.397-4.995-55.86-9.398h111.72C247.098,98.38,228.363,103.374,199.7,103.374z M257.797,61.085H241.99
			c-7.772,0-14.096-6.325-14.096-14.097V25.745C241.966,33.103,252.825,45.767,257.797,61.085z M204.399,70.483V19.035
			c4.877,0.376,9.604,1.292,14.096,2.754v25.2c0,12.955,10.539,23.494,23.494,23.494h17.997c0.479,3.073,0.799,6.193,0.799,9.398
			v4.699h-122.17v-4.7c0-3.205,0.324-6.325,0.799-9.398h17.997c12.955,0,23.494-10.539,23.494-23.494V21.784
			c4.492-1.457,9.219-2.378,14.097-2.754v51.452L204.399,70.483L204.399,70.483z M171.507,25.745v21.243
			c0,7.772-6.325,14.097-14.097,14.097h-15.807C146.575,45.767,157.434,33.103,171.507,25.745z M157.411,136.266v-27.737
			c12.48,2.862,27.62,4.243,42.29,4.243s29.809-1.381,42.29-4.243v27.737c0,23.32-18.974,42.29-42.29,42.29
			S157.411,159.587,157.411,136.266z M55.799,162.044c-12.49-5.061-20.557-17.024-20.557-30.477c0-8.622,4.238-16.366,9.398-22.113
			v22.113c0,2.598,2.105,4.699,4.699,4.699H86.93c2.594,0,4.699-2.1,4.699-4.699v-22.113c5.159,5.747,9.398,13.49,9.398,22.113
			c0,13.57-8.054,25.529-20.525,30.463c-1.795,0.71-2.97,2.443-2.97,4.37v68.542H58.735V166.4
			C58.735,164.487,57.575,162.768,55.799,162.044z M49.338,281.93h9.398v-9.398h-9.398v-9.398h9.398v-9.398h-9.398v-9.398h4.699
			H82.23h4.699v18.795v28.193H49.338V281.93z M119.82,291.328H96.326v-23.494h23.494C119.82,267.834,119.82,291.328,119.82,291.328z
			 M152.712,256.491l-23.494,23.494v-16.85v-37.591c0-14.867,9.924-27.451,23.494-31.506V256.491z M218.496,230.243h-37.591v-37.591
			h37.591V230.243z M246.689,256.491v-62.452c13.57,4.055,23.494,16.639,23.494,31.506v54.441L246.689,256.491z"/>
		<path d="M232.592,136.266h-9.398c0,12.955-10.539,23.494-23.494,23.494v9.398C217.838,169.158,232.592,154.399,232.592,136.266z"
			/>
		<path d="M223.195,249.038h-46.988c-2.594,0-4.699,2.1-4.699,4.699v23.494c0,12.955,10.539,23.494,23.494,23.494h9.398
			c12.955,0,23.494-10.539,23.494-23.494v-23.494C227.893,251.139,225.788,249.038,223.195,249.038z M218.496,277.231
			c0,7.772-6.325,14.096-14.096,14.096h-9.398c-7.772,0-14.097-6.325-14.097-14.096v-18.795h37.591L218.496,277.231L218.496,277.231
			z"/>
	</g>
	<g id="Layer_1_28_">
	</g>
</g>
</svg>